<svg width="44" height="44" viewBox="0 0 44 44" fill="none" xmlns="http://www.w3.org/2000/svg">
<path fill-rule="evenodd" clip-rule="evenodd" d="M21.9847 44C34.1266 44 43.9695 34.1503 43.9695 22C43.9695 9.84974 34.1266 0 21.9847 0C9.8429 0 0 9.84974 0 22C0 34.1503 9.8429 44 21.9847 44Z" fill="#D8D8D8"/>
<path fill-rule="evenodd" clip-rule="evenodd" d="M15.6667 14.0833C15.6667 12.4036 16.3339 10.7927 17.5217 9.60499C18.7094 8.41726 20.3203 7.75 22 7.75C23.6797 7.75 25.2906 8.41726 26.4783 9.60499C27.6661 10.7927 28.3333 12.4036 28.3333 14.0833C28.3333 15.763 27.6661 17.3739 26.4783 18.5617C25.2906 19.7494 23.6797 20.4167 22 20.4167C20.3203 20.4167 18.7094 19.7494 17.5217 18.5617C16.3339 17.3739 15.6667 15.763 15.6667 14.0833ZM15.6667 23.5833C13.567 23.5833 11.5534 24.4174 10.0687 25.9021C8.58407 27.3867 7.75 29.4004 7.75 31.5C7.75 32.7598 8.25045 33.968 9.14124 34.8588C10.032 35.7496 11.2402 36.25 12.5 36.25H31.5C32.7598 36.25 33.968 35.7496 34.8588 34.8588C35.7496 33.968 36.25 32.7598 36.25 31.5C36.25 29.4004 35.4159 27.3867 33.9313 25.9021C32.4466 24.4174 30.433 23.5833 28.3333 23.5833H15.6667Z" fill="#929292"/>
</svg>
